<svg width="81" height="79" viewBox="0 0 81 79" fill="none" xmlns="http://www.w3.org/2000/svg">
<rect y="0.693205" width="24.1624" height="5.2906" transform="matrix(-0.72074 0.693205 0.72074 0.693205 17.6359 57.4092)" fill="white" stroke="black"/>
<path d="M44.2696 66.2708C27.7674 66.2708 14.3853 52.962 14.3853 36.5393C14.3853 20.1166 27.7674 6.80786 44.2696 6.80786C60.7718 6.80786 74.1539 20.1166 74.1539 36.5393C74.1539 52.962 60.7718 66.2708 44.2696 66.2708ZM8.03923 36.5393C8.03923 56.4408 24.2577 72.5786 44.2696 72.5786C64.2816 72.5786 80.5 56.4408 80.5 36.5393C80.5 16.6378 64.2816 0.5 44.2696 0.5C24.2577 0.5 8.03923 16.6378 8.03923 36.5393Z" fill="white" stroke="black"/>
<path d="M47.4958 24.5004L42.4996 24.5004L42.4996 48.4996L47.4958 48.4996L47.4958 24.5004Z" fill="white" stroke="black"/>
<path d="M56.7333 39.4958L56.7332 34.4996L32.734 34.4996L32.734 39.4958L56.7333 39.4958Z" fill="white" stroke="black"/>
</svg>
